<svg width="1920" height="1377" viewBox="0 0 1920 1377" fill="none" xmlns="http://www.w3.org/2000/svg">
<rect width="1920" height="1377" fill="#DCDCDC"/>
<path d="M322.5 230.5C322.5 145.448 253.552 76.5 168.5 76.5H36.5V414.5H322.5V230.5Z" stroke="#1E1E1E"/>
<path d="M288.5 286.5C373.552 286.5 442.5 217.552 442.5 132.5L442.5 0.5L104.5 0.500015L104.5 286.5L288.5 286.5Z" stroke="#1E1E1E"/>
<path d="M1603.1 412.471C1672.62 461.465 1768.7 444.824 1817.69 375.302L1893.73 267.404L1617.45 72.6969L1452.7 306.476L1603.1 412.471Z" stroke="#1E1E1E"/>
<path d="M645.499 1254.5C645.23 1189.84 592.727 1137.5 528 1137.5H0.5V1254.5H645.499Z" stroke="#1E1E1E"/>
<path d="M234 1108.5C291.547 1108.5 338.23 1061.98 338.499 1004.5L0.499995 1004.5L0.5 1108.5L234 1108.5Z" stroke="#1E1E1E"/>
</svg>
